<?xml version="1.0" encoding="UTF-8" standalone="no"?>
<svg
   xmlns:dc="http://purl.org/dc/elements/1.1/"
   xmlns:cc="http://creativecommons.org/ns#"
   xmlns:rdf="http://www.w3.org/1999/02/22-rdf-syntax-ns#"
   xmlns:svg="http://www.w3.org/2000/svg"
   xmlns="http://www.w3.org/2000/svg"
   viewBox="0 0 1898.6667 666.66669"
   height="666.66669"
   width="1898.6667"
   xml:space="preserve"
   id="svg2"
   version="1.1"><metadata
     id="metadata8"><rdf:RDF><cc:Work
         rdf:about=""><dc:format>image/svg+xml</dc:format><dc:type
           rdf:resource="http://purl.org/dc/dcmitype/StillImage" /></cc:Work></rdf:RDF></metadata><defs
     id="defs6"><clipPath
       id="clipPath20"
       clipPathUnits="userSpaceOnUse"><path
         id="path18"
         d="M 0,0 H 1424 V 500 H 0 Z" /></clipPath></defs><g
     transform="matrix(1.3333333,0,0,-1.3333333,0,666.66667)"
     id="g10"><g
       id="g12" /><g
       id="g14"><g
         clip-path="url(#clipPath20)"
         id="g16"><path
           id="path22"
           style="fill:#ffffff;fill-opacity:1;fill-rule:nonzero;stroke:none"
           d="M 0,0 H 1424 V 500 H 0 Z" /><g
           transform="matrix(1,0,0,-1,866.76,441.6446)"
           id="g24"><path
             id="path26"
             style="fill:none;stroke:#f4a000;stroke-width:15;stroke-linecap:butt;stroke-linejoin:miter;stroke-miterlimit:4;stroke-dasharray:none;stroke-opacity:1"
             d="m 179.6477,30.9169 c 41.0969,41.22254 41.0969,108.0575 0,149.28 -41.0969,41.2226 -107.72813,41.2226 -148.82503,0 -41.09689,-41.2225 -41.09689,-108.05746 0,-149.28 41.0969,-41.22253 107.72813,-41.22253 148.82503,0 z" /></g><path
           id="path28"
           style="fill:#f4a000;fill-opacity:1;fill-rule:nonzero;stroke:none"
           d="m 261.0236,414.3409 c 43.218,-43.2181 43.218,-113.2883 0,-156.5063 -43.218,-43.2181 -113.2883,-43.2181 -156.5063,0 -43.21807,43.218 -43.21807,113.2882 0,156.5063 43.218,43.218 113.2883,43.218 156.5063,0 z" /><path
           id="path30"
           style="fill:#f4a000;fill-opacity:1;fill-rule:nonzero;stroke:none"
           d="m 523.409,414.3409 c 43.218,-43.2181 43.218,-113.2883 0,-156.5063 -43.218,-43.2181 -113.2883,-43.2181 -156.5063,0 -43.218,43.218 -43.218,113.2882 0,156.5063 43.218,43.218 113.2883,43.218 156.5063,0 z" /><path
           id="path32"
           style="fill:#f4a000;fill-opacity:1;fill-rule:nonzero;stroke:none"
           d="m 785.7944,414.3409 c 43.218,-43.2181 43.218,-113.2883 0,-156.5064 -43.218,-43.218 -113.2883,-43.218 -156.5063,0 -43.218,43.2181 -43.218,113.2883 0,156.5064 43.218,43.218 113.2883,43.218 156.5063,0 z" /><path
           id="path34"
           style="fill:#f4a000;fill-opacity:1;fill-rule:nonzero;stroke:none"
           d="m 1318.783,416.031 c 44.151,-44.1515 44.151,-115.7351 0,-159.8866 -44.152,-44.1515 -115.735,-44.1515 -159.887,0 -44.151,44.1515 -44.151,115.7351 0,159.8866 44.152,44.1515 115.735,44.1515 159.887,0 z" /><g
           transform="translate(75.20801,67.75786)"
           id="g36"><text
             id="text40"
             style="font-variant:normal;font-weight:bold;font-size:169px;font-family:HelveticaNeue;-inkscape-font-specification:HelveticaNeue-Bold;writing-mode:lr-tb;fill:#f4a000;fill-opacity:1;fill-rule:nonzero;stroke:none"
             transform="scale(1,-1)"><tspan
               id="tspan38"
               y="0"
               x="0 97.005997 200.265 297.271 397.48801 500.74701 604.00598 650.98798 741.74103 838.74701 882.349 979.35498 1079.572 1176.578">agendo.science</tspan></text>
</g></g></g></g></svg>